HIERARCHY
ROOT Hips
{
  OFFSET 5.13426 39.0111 22.7525
  CHANNELS 6 Xposition Yposition Zposition Zrotation Xrotation Yrotation
  JOINT LeftHip
  {
    OFFSET 3.43 -2.27374e-013 1.95399e-014
    CHANNELS 6 Xposition Yposition Zposition Zrotation Xrotation Yrotation
    JOINT LeftKnee
    {
      OFFSET -2.13163e-014 -18.47 -3.55271e-015
      CHANNELS 6 Xposition Yposition Zposition Zrotation Xrotation Yrotation
      JOINT LeftAnkle
      {
        OFFSET -7.10543e-015 -17.95 2.13163e-014
        CHANNELS 6 Xposition Yposition Zposition Zrotation Xrotation Yrotation
        End Site
        {
          OFFSET 0 -3.12 0
        }
      }
    }
  }
  JOINT RightHip
  {
    OFFSET -3.43 -2.84217e-013 3.37508e-014
    CHANNELS 6 Xposition Yposition Zposition Zrotation Xrotation Yrotation
    JOINT RightKnee
    {
      OFFSET -1.77636e-014 -18.47 4.61853e-014
      CHANNELS 6 Xposition Yposition Zposition Zrotation Xrotation Yrotation
      JOINT RightAnkle
      {
        OFFSET 1.42109e-014 -17.95 -2.4869e-014
        CHANNELS 6 Xposition Yposition Zposition Zrotation Xrotation Yrotation
        End Site
        {
          OFFSET 0 -3.12 0
        }
      }
    }
  }
  JOINT Chest
  {
    OFFSET 8.52651e-014 4.57 2.57572e-014
    CHANNELS 6 Xposition Yposition Zposition Zrotation Xrotation Yrotation
    JOINT Chest2
    {
      OFFSET -7.10543e-015 6.57 -4.44089e-015
      CHANNELS 6 Xposition Yposition Zposition Zrotation Xrotation Yrotation
      JOINT LeftCollar
      {
        OFFSET 1.06 4.19 1.76
        CHANNELS 6 Xposition Yposition Zposition Zrotation Xrotation Yrotation
        JOINT LeftShoulder
        {
          OFFSET 5.81 9.23706e-014 -1.42109e-014
          CHANNELS 6 Xposition Yposition Zposition Zrotation Xrotation Yrotation
          JOINT LeftElbow
          {
            OFFSET -4.61853e-014 -12.08 1.42109e-014
            CHANNELS 6 Xposition Yposition Zposition Zrotation Xrotation Yrotation
            JOINT LeftWrist
            {
              OFFSET -3.55271e-015 -9.82 -7.10543e-015
              CHANNELS 6 Xposition Yposition Zposition Zrotation Xrotation Yrotation
              End Site
              {
                OFFSET 0 -7.37 0
              }
            }
          }
        }
      }
      JOINT RightCollar
      {
        OFFSET -1.06 4.19 1.76
        CHANNELS 6 Xposition Yposition Zposition Zrotation Xrotation Yrotation
        JOINT RightShoulder
        {
          OFFSET -6.06 -7.10543e-015 1.06581e-014
          CHANNELS 6 Xposition Yposition Zposition Zrotation Xrotation Yrotation
          JOINT RightElbow
          {
            OFFSET -7.10543e-015 -11.08 -1.77636e-015
            CHANNELS 6 Xposition Yposition Zposition Zrotation Xrotation Yrotation
            JOINT RightWrist
            {
              OFFSET 7.10543e-015 -9.82 -1.42109e-014
              CHANNELS 6 Xposition Yposition Zposition Zrotation Xrotation Yrotation
              End Site
              {
                OFFSET 0 -7.14001 0
              }
            }
          }
        }
      }
      JOINT Neck
      {
        OFFSET -1.42109e-014 4.05 -7.10543e-015
        CHANNELS 6 Xposition Yposition Zposition Zrotation Xrotation Yrotation
        JOINT Head
        {
          OFFSET 7.10543e-015 5.19 0
          CHANNELS 6 Xposition Yposition Zposition Zrotation Xrotation Yrotation
          End Site
          {
            OFFSET 0 4.14001 0
          }
        }
      }
    }
  }
}
MOTION
Frames:	10
Frame Time:	0.0333333
55.5143 40.1741 23.5345 0.870436 -5.64037 -122.946 3.43 1.74001e-013 2.793e-012 -2.88762 -17.8361 5.22352 -2.13163e-014 -18.47 -3.55271e-015 -0.850791 19.9068 38.8462 -7.10543e-015 -17.95 1.58566e-012 8.39234 -4.49465 0.329933 -3.43 2.07906e-013 -1.39027e-012 -0.340467 3.20552 -9.59819 9.75602e-013 -18.47 -1.92866e-012 0.608979 3.17749 -38.3794 -2.75192e-013 -17.95 4.77952e-012 0.587826 -10.4865 0.053944 7.68728e-013 4.57 -2.32796e-012 -1.93895 -0.530842 -0.995674 -7.10543e-015 6.57 -4.44089e-015 -1.66615 -0.482761 -1.07687 1.06 4.19 1.76 -6.37694 0.925089 -1.10136 5.81 -5.25094e-013 6.12686e-013 20.5798 23.9954 6.33678 1.93015e-012 -12.08 3.17244e-013 -4.53694 -37.2741 -22.0266 -3.55271e-015 -9.82 -7.10543e-015 17.4355 19.1158 -2.95803 -1.06 4.19 1.76 -2.0555 0.33168 11.5328 -6.06 5.849e-012 1.84531e-012 -12.976 7.73648 11.7338 8.69907e-012 -11.08 -3.45049e-013 8.51554 -42.5867 22.6233 7.10543e-015 -9.82 3.60264e-013 -18.3321 10.4827 1.69607 -1.42109e-014 4.05 -7.10543e-015 -0.150206 12.264 3.48789 7.10543e-015 5.19 0 -3.07126 5.50838 4.41418 
55.1259 40.0859 23.5448 1.67296 -5.18407 -120.519 3.43 1.73216e-013 2.76942e-012 -2.82056 -18.1044 4.97468 -2.13163e-014 -18.47 -3.55271e-015 -0.56431 20.4279 36.7297 -7.10543e-015 -17.95 1.579e-012 8.44277 -5.62654 0.415631 -3.43 1.82707e-013 -1.34334e-012 0.0686807 4.91016 -9.20937 9.38075e-013 -18.47 -1.86011e-012 0.476043 1.55909 -34.3726 -2.75623e-013 -17.95 4.83195e-012 1.00655 -10.6172 0.0935299 7.5729e-013 4.57 -2.38592e-012 -1.76666 -1.05114 -1.16793 -7.10543e-015 6.57 -4.44089e-015 -1.49228 -0.95542 -1.23014 1.06 4.19 1.76 -6.60041 0.948422 -1.34875 5.81 -5.37615e-013 6.01435e-013 19.9295 26.2465 5.68943 1.94071e-012 -12.08 3.4634e-013 -4.94515 -37.0011 -22.7202 -3.55271e-015 -9.82 -7.10543e-015 16.2122 20.4796 -2.94772 -1.06 4.19 1.76 -1.91371 0.354331 11.3429 -6.06 5.83214e-012 1.83423e-012 -13.5999 7.92816 12.118 8.67657e-012 -11.08 -3.41249e-013 8.56555 -44.0633 21.5749 7.10543e-015 -9.82 3.59388e-013 -18.4134 10.6567 1.73216 -1.42109e-014 4.05 -7.10543e-015 -0.0520619 12.4139 3.13699 7.10543e-015 5.19 0 -3.04308 5.70641 4.16301 
54.6637 40.0232 23.5949 2.33668 -5.96231 -118.47 3.43 1.38233e-013 2.74515e-012 -3.76777 -18.2812 4.3519 -2.13163e-014 -18.47 -3.55271e-015 -0.84692 20.3105 34.9343 -7.10543e-015 -17.95 1.5722e-012 8.38321 -6.55103 0.480633 -3.43 1.49158e-013 -1.29626e-012 -0.955457 4.91701 -9.44802 9.00104e-013 -18.47 -1.79073e-012 0.3202 2.71751 -31.0643 -2.76048e-013 -17.95 4.88314e-012 2.49858 -12.0261 0.263228 7.45764e-013 4.57 -2.44386e-012 -2.48316 -1.96032 -1.08809 -7.10543e-015 6.57 -4.44089e-015 -2.145 -1.7884 -1.23952 1.06 4.19 1.76 -6.88784 0.96562 -1.42285 5.81 -5.43802e-013 5.90162e-013 19.957 28.3519 4.79748 1.95088e-012 -12.08 3.72792e-013 -5.29905 -37.0198 -24.5577 -3.55271e-015 -9.82 -7.10543e-015 15.3375 20.952 -2.85245 -1.06 4.19 1.76 -1.94361 0.352572 11.2281 -6.06 5.81459e-012 1.82296e-012 -13.0554 7.80897 11.2443 8.65395e-012 -11.08 -3.32534e-013 8.39392 -43.1448 21.4988 7.10543e-015 -9.82 3.58506e-013 -18.4405 9.97585 1.62335 -1.42109e-014 4.05 -7.10543e-015 0.217858 12.549 2.72741 7.10543e-015 5.19 0 -2.56207 5.80585 3.67513 
54.1615 39.9196 23.6318 2.99032 -5.57915 -116.415 3.43 7.46354e-014 2.7202e-012 -3.346 -18.2725 4.66712 -2.13163e-014 -18.47 -3.55271e-015 -1.05137 20.9838 33.5626 -7.10543e-015 -17.95 1.56525e-012 6.83864 -7.57022 0.452973 -3.43 1.06581e-013 -1.24907e-012 -0.778113 6.64514 -9.32664 8.61684e-013 -18.47 -1.72053e-012 0.244688 1.07917 -27.8864 -2.76467e-013 -17.95 4.93312e-012 2.66377 -12.2265 0.28535 7.34156e-013 4.57 -2.50176e-012 -2.57607 -2.56343 -0.898247 -7.10543e-015 6.57 -4.44089e-015 -2.24899 -2.33888 -1.08521 1.06 4.19 1.76 -6.04054 0.95311 -1.93295 5.81 -5.43565e-013 5.78871e-013 18.8092 30.2024 4.86038 1.96067e-012 -12.08 3.96417e-013 -5.41468 -37.0842 -24.8085 -3.55271e-015 -9.82 -7.10543e-015 13.6178 21.7936 -2.63354 -1.06 4.19 1.76 -1.23743 0.448748 10.9798 -6.06 5.79635e-012 1.81148e-012 -13.4322 8.74005 10.7055 8.63119e-012 -11.08 -3.1864e-013 8.38789 -43.0307 21.1776 7.10543e-015 -9.82 3.57617e-013 -18.2625 9.95488 1.60401 -1.42109e-014 4.05 -7.10543e-015 0.774147 12.9869 1.92377 7.10543e-015 5.19 0 -2.88617 5.63074 3.26818 
53.6145 39.9069 23.7153 3.14618 -5.16041 -114.587 3.43 -1.19904e-014 2.69458e-012 -3.24542 -17.1564 5.099 -2.13163e-014 -18.47 -3.55271e-015 -1.46388 20.5334 32.3277 -7.10543e-015 -17.95 1.55817e-012 6.38313 -8.39575 0.468992 -3.43 7.10543e-015 -1.20182e-012 -0.932087 8.17749 -9.46794 8.22815e-013 -18.47 -1.6495e-012 0.135823 0.675813 -25.0725 -2.7688e-013 -17.95 4.98187e-012 3.29493 -12.9297 0.373463 7.22471e-013 4.57 -2.5596e-012 -2.70773 -2.64565 -0.963084 -7.10543e-015 6.57 -4.44089e-015 -2.36389 -2.41332 -1.15182 1.06 4.19 1.76 -5.9768 0.942071 -1.77696 5.81 -5.36815e-013 5.67565e-013 18.6416 30.5255 4.59883 1.97007e-012 -12.08 4.1703e-013 -5.45365 -35.7887 -25.653 -3.55271e-015 -9.82 -7.10543e-015 12.9082 20.6091 -2.35653 -1.06 4.19 1.76 -1.18883 0.456702 10.8468 -6.06 5.77745e-012 1.7998e-012 -13.1288 8.69322 10.3346 8.60829e-012 -11.08 -2.99308e-013 8.38677 -41.2082 21.5044 7.10543e-015 -9.82 3.56722e-013 -18.6766 9.96801 1.6432 -1.42109e-014 4.05 -7.10543e-015 0.914029 12.9977 1.60492 7.10543e-015 5.19 0 -2.69677 5.41961 2.9786 
53.0301 39.9377 23.8294 3.05586 -4.94303 -112.152 3.43 -1.1606e-013 2.66833e-012 -3.77697 -15.8318 4.99188 -2.13163e-014 -18.47 -3.55271e-015 -1.61777 19.6623 30.3741 -7.10543e-015 -17.95 1.55094e-012 6.84944 -8.88867 0.532999 -3.43 -3.33955e-013 -1.15455e-012 -1.4916 9.299 -10.2251 7.83495e-013 -18.47 -1.57764e-012 0.353599 1.36481 -24.1437 -2.77286e-013 -17.95 5.02941e-012 3.88749 -13.4214 0.457585 7.10714e-013 4.57 -2.61736e-012 -2.99298 -2.50375 -1.43062 -7.10543e-015 6.57 -4.44089e-015 -2.57959 -2.28438 -1.587 1.06 4.19 1.76 -6.32209 0.960827 -1.81444 5.81 -5.23462e-013 5.56248e-013 18.8075 30.6619 4.4609 1.97907e-012 -12.08 4.34447e-013 -5.4611 -35.705 -25.9666 -3.55271e-015 -9.82 -7.10543e-015 12.5287 20.4628 -2.27011 -1.06 4.19 1.76 -1.45653 0.424622 10.6955 -6.06 5.75788e-012 1.78792e-012 -12.5747 8.6306 9.97173 8.58527e-012 -11.08 -2.74274e-013 8.3228 -39.1779 22.009 7.10543e-015 -9.82 3.5582e-013 -18.3928 10.2226 1.65933 -1.42109e-014 4.05 -7.10543e-015 0.79881 12.7576 1.40779 7.10543e-015 5.19 0 -2.11619 5.37933 2.58863 
52.3683 39.9733 23.9641 3.0024 -4.85962 -109.662 3.43 -2.31989e-013 2.64144e-012 -4.77869 -14.2896 4.30616 -2.13163e-014 -18.47 -3.55271e-015 -1.28184 18.4288 28.4094 -7.10543e-015 -17.95 1.54356e-012 7.14465 -9.19494 0.575268 -3.43 0 -1.1073e-012 -2.43573 9.57257 -11.1083 7.43722e-013 -18.47 -1.50495e-012 0.727176 3.99572 -22.7511 -2.77686e-013 -17.95 5.07576e-012 6.63245 -13.3281 0.775769 6.98889e-013 4.57 -2.675e-012 -3.31745 -2.44945 -1.91938 -7.10543e-015 6.57 -4.44089e-015 -2.82742 -2.23597 -2.05254 1.06 4.19 1.76 -6.21081 0.96757 -2.04671 5.81 -5.03417e-013 5.44924e-013 18.7986 30.2634 4.06224 1.98769e-012 -12.08 4.48483e-013 -5.5822 -35.6472 -25.1748 -3.55271e-015 -9.82 -7.10543e-015 13.5542 20.4602 -2.45724 -1.06 4.19 1.76 -2.123 0.348102 10.3072 -6.06 5.73766e-012 1.77583e-012 -11.4381 8.73764 9.68413 8.56211e-012 -11.08 -2.43278e-013 8.14541 -37.0171 23.2353 7.10543e-015 -9.82 3.54911e-013 -18.0539 10.3266 1.6449 -1.42109e-014 4.05 -7.10543e-015 0.854252 12.5035 1.0218 7.10543e-015 5.19 0 -1.93544 5.49511 2.19473 
51.7114 40.0286 24.0897 2.5992 -4.39988 -107.346 3.43 -3.54191e-013 2.61395e-012 -5.29665 -11.563 4.08857 -2.13163e-014 -18.47 -3.55271e-015 -1.01031 16.0186 26.3284 -7.10543e-015 -17.95 1.53604e-012 7.06164 -9.04092 0.559004 -3.43 1.7053e-013 -1.06011e-012 -2.96882 10.6829 -12.1755 7.03494e-013 -18.47 -1.43141e-012 1.2597 5.28826 -20.9034 -2.78079e-013 -17.95 5.12091e-012 8.34457 -11.0159 0.806075 6.87003e-013 4.57 -2.73252e-012 -3.46958 -2.01464 -2.38351 -7.10543e-015 6.57 -4.44089e-015 -2.92126 -1.84319 -2.47924 1.06 4.19 1.76 -6.08457 0.97959 -2.40591 5.81 -4.7659e-013 5.33597e-013 18.851 29.1196 3.45101 1.99591e-012 -12.08 4.58953e-013 -5.59909 -35.6375 -25.846 -3.55271e-015 -9.82 -7.10543e-015 13.7167 20.1108 -2.44361 -1.06 4.19 1.76 -2.09122 0.351996 10.3086 -6.06 5.71679e-012 1.76354e-012 -10.9946 8.59122 9.38112 8.53882e-012 -11.08 -2.06057e-013 8.3093 -34.3254 21.3311 7.10543e-015 -9.82 3.53996e-013 -16.8068 9.74504 1.44301 -1.42109e-014 4.05 -7.10543e-015 1.02689 12.3082 0.66683 7.10543e-015 5.19 0 -2.19148 5.16215 2.04617 
51.1043 39.9761 24.2143 2.09243 -4.18857 -105.364 3.43 -4.77083e-013 2.58586e-012 -5.76468 -9.20277 4.03063 -2.13163e-014 -18.47 -3.55271e-015 -1.06061 14.5224 23.2311 -7.10543e-015 -17.95 1.52838e-012 6.63083 -9.39099 0.545233 -3.43 1.53818e-013 -1.01303e-012 -3.44757 11.8004 -13.3956 6.62808e-013 -18.47 -1.35704e-012 1.56947 5.99242 -19.4279 -2.78466e-013 -17.95 5.16488e-012 8.68156 -8.02763 0.61034 6.7506e-013 4.57 -2.78987e-012 -3.75452 -1.51838 -2.86787 -7.10543e-015 6.57 -4.44089e-015 -3.13502 -1.40294 -2.93482 1.06 4.19 1.76 -6.22904 0.98687 -2.39592 5.81 -4.42892e-013 5.2227e-013 19.5628 27.669 2.092 2.00373e-012 -12.08 4.65673e-013 -5.87617 -36.5866 -27.0071 -3.55271e-015 -9.82 -7.10543e-015 12.9547 18.8143 -2.15524 -1.06 4.19 1.76 -2.31971 0.319903 10.4806 -6.06 5.69529e-012 1.75105e-012 -10.519 9.09716 9.27742 8.51541e-012 -11.08 -1.20792e-013 8.01587 -33.9463 25.0506 7.10543e-015 -9.82 3.53074e-013 -17.2648 10.6583 1.62266 -1.42109e-014 4.05 -7.10543e-015 1.03242 12.0741 0.477512 7.10543e-015 5.19 0 -2.15172 5.12742 1.89688 
50.5496 39.9098 24.3083 1.94949 -4.40449 -103.54 3.43 -5.9508e-013 2.55719e-012 -6.37429 -7.76565 3.8807 -2.13163e-014 -18.47 -3.55271e-015 -1.00062 13.7372 21.9628 -7.10543e-015 -17.95 1.52057e-012 6.07093 -9.92091 0.527405 -3.43 4.99085e-014 -9.66099e-013 -5.23229 6.65697 -13.7566 6.21664e-013 -18.47 -1.28182e-012 1.09712 17.8133 -17.3442 -2.78846e-013 -17.95 5.20767e-012 10.0621 -8.66345 0.764128 6.63065e-013 4.57 -2.84705e-012 -4.35824 -1.3089 -3.30185 -7.10543e-015 6.57 -4.44089e-015 -3.64188 -1.22854 -3.37762 1.06 4.19 1.76 -6.50127 1.0113 -2.57298 5.81 -4.02234e-013 5.10947e-013 21.1704 26.2386 -0.0429333 2.01114e-012 -12.08 4.6846e-013 -6.4397 -38.4915 -28.2589 -3.55271e-015 -9.82 -7.10543e-015 12.9901 19.4548 -2.23613 -1.06 4.19 1.76 -1.8667 0.378724 10.3627 -6.06 5.67316e-012 1.73835e-012 -10.424 9.391 9.10314 8.49187e-012 -11.08 -1.06581e-013 7.95451 -33.3302 25.7325 7.10543e-015 -9.82 3.52146e-013 -13.5135 11.3908 1.35395 -1.42109e-014 4.05 -7.10543e-015 1.23207 11.9634 0.302922 7.10543e-015 5.19 0 -1.88909 5.30365 1.76815 
